<svg xmlns="http://www.w3.org/2000/svg" width="50" height="50" viewBox="0 0 50 50" fill="none">
    <path d="M33.3333 29.1667H35.4167V20.8333H33.3333V18.75H31.25V31.25H33.3333V29.1667Z" fill="white" />
    <path
        d="M22.9167 6.25V8.33333H20.8333V10.4167H18.75V12.5H16.6667V14.5833H14.5833V16.6667H12.5V18.75H10.4167V20.8333H8.33333V22.9167H6.25V27.0833H8.33333V29.1667H10.4167V31.25H12.5V33.3333H14.5833V35.4167H16.6667V37.5H18.75V39.5833H20.8333V41.6667H22.9167V43.75H27.0833V6.25H22.9167ZM22.9167 33.3333H20.8333V31.25H18.75V29.1667H16.6667V27.0833H14.5833V22.9167H16.6667V20.8333H18.75V18.75H20.8333V16.6667H22.9167V33.3333Z"
        fill="white" />
    <path
        d="M39.5833 14.5833V12.5H31.25V16.6667H35.4167V18.75H37.5V31.25H35.4167V33.3333H31.25V37.5H39.5833V35.4167H41.6667V14.5833H39.5833Z"
        fill="white" />
</svg>