<svg width="504" height="245" viewBox="0 0 504 245" fill="none" xmlns="http://www.w3.org/2000/svg">
<rect x="77" y="5" width="350" height="239" fill="#D29D76" stroke="#925724" stroke-width="2"/>
<mask id="path-2-outside-1_298_3011" maskUnits="userSpaceOnUse" x="84.8438" y="15" width="334" height="221" fill="black">
<rect fill="white" x="84.8438" y="15" width="334" height="221"/>
<path d="M411.422 23.5166H416.844V227.517H411.422V233.006H92.2676V227.517H86.8438V23.5166H92.2676V17H411.422V23.5166Z"/>
</mask>
<path d="M411.422 23.5166H416.844V227.517H411.422V233.006H92.2676V227.517H86.8438V23.5166H92.2676V17H411.422V23.5166Z" fill="#D3B382"/>
<path d="M411.422 23.5166H409.422V25.5166H411.422V23.5166ZM416.844 23.5166H418.844V21.5166H416.844V23.5166ZM416.844 227.517V229.517H418.844V227.517H416.844ZM411.422 227.517V225.517H409.422V227.517H411.422ZM411.422 233.006V235.006H413.422V233.006H411.422ZM92.2676 233.006H90.2676V235.006H92.2676V233.006ZM92.2676 227.517H94.2676V225.517H92.2676V227.517ZM86.8438 227.517H84.8438V229.517H86.8438V227.517ZM86.8438 23.5166V21.5166H84.8438V23.5166H86.8438ZM92.2676 23.5166V25.5166H94.2676V23.5166H92.2676ZM92.2676 17V15H90.2676V17H92.2676ZM411.422 17H413.422V15H411.422V17ZM411.422 23.5166V25.5166H416.844V23.5166V21.5166H411.422V23.5166ZM416.844 23.5166H414.844V227.517H416.844H418.844V23.5166H416.844ZM416.844 227.517V225.517H411.422V227.517V229.517H416.844V227.517ZM411.422 227.517H409.422V233.006H411.422H413.422V227.517H411.422ZM411.422 233.006V231.006H92.2676V233.006V235.006H411.422V233.006ZM92.2676 233.006H94.2676V227.517H92.2676H90.2676V233.006H92.2676ZM92.2676 227.517V225.517H86.8438V227.517V229.517H92.2676V227.517ZM86.8438 227.517H88.8438V23.5166H86.8438H84.8438V227.517H86.8438ZM86.8438 23.5166V25.5166H92.2676V23.5166V21.5166H86.8438V23.5166ZM92.2676 23.5166H94.2676V17H92.2676H90.2676V23.5166H92.2676ZM92.2676 17V19H411.422V17V15H92.2676V17ZM411.422 17H409.422V23.5166H411.422H413.422V17H411.422Z" fill="#AB6F5A" mask="url(#path-2-outside-1_298_3011)"/>
<g filter="url(#filter0_d_298_3011)">
<path d="M132 56V46H134V44H136V42H142V44H144V46H146V56H142V52H136V56H132ZM136 50H142V46H140V44H138V46H136V50ZM148 56V46H160V48H162V56H158V48H152V56H148ZM170 56V48H166V46H170V42H174V46H178V48H174V56H170ZM182 56V54H180V48H182V46H192V48H194V52H184V54H192V56H182ZM184 50H190V48H184V50ZM196 56V46H208V48H210V56H206V48H200V56H196ZM218 56V48H214V46H218V42H222V46H226V48H222V56H218ZM254 52H256V54H258V56H246V54H244V50H246V48H244V44H246V42H252V44H254V48H252V50H254V52ZM248 48H250V44H248V48ZM252 52H250V50H248V54H252V52ZM258 50V52H256V50H258ZM276 56V42H280V44H282V46H284V48H286V42H290V56H286V52H284V50H282V48H280V56H276ZM294 56V54H292V48H294V46H304V48H306V52H296V54H304V56H294ZM296 50H302V48H296V50ZM310 56V54H308V48H310V46H322V48H312V54H322V56H310ZM330 56V48H326V46H330V42H334V46H338V48H334V56H330ZM346 48H348V50H346V56H342V46H346V48ZM354 46V48H348V46H354ZM358 58V56H366V54H358V52H356V46H360V52H366V46H370V56H368V58H358Z" fill="#FFFDF8"/>
</g>
<g filter="url(#filter1_d_298_3011)">
<path d="M132 81V67H144V69H146V75H144V77H136V81H132ZM136 75H142V69H136V75ZM150 81V79H154V69H152V67H158V79H162V81H150ZM166 81V79H164V77H166V75H174V73H166V71H176V73H178V81H166ZM168 79H174V77H168V79ZM182 81V79H180V73H182V71H194V73H184V79H194V81H182ZM198 81V79H196V73H198V71H208V73H210V77H200V79H208V81H198ZM200 75H206V73H200V75ZM212 81V79H222V77H214V75H212V73H214V71H224V73H216V75H224V77H226V79H224V81H212ZM246 81V79H244V67H248V75H250V67H252V75H254V67H258V79H256V81H254V79H252V77H250V79H248V81H246ZM262 81V79H260V73H262V71H272V73H274V77H264V79H272V81H262ZM264 75H270V73H264V75ZM280 73V67H284V73H280ZM294 81V79H298V69H296V67H302V79H306V81H294ZM310 81V79H314V69H312V67H318V79H322V81H310ZM344 81V79H342V77H340V71H342V69H344V67H354V69H346V71H344V77H346V79H350V75H348V73H354V81H344ZM358 81V79H356V73H358V71H368V73H370V79H368V81H358ZM360 79H366V73H360V79Z" fill="#FFFDF8"/>
</g>
<g filter="url(#filter2_d_298_3011)">
<path d="M177 117.125V113.375H178.875V111.5H180.75V109.625H184.5V107.75H186.375V105.875H180.75V107.75H177V105.875H178.875V104H188.25V105.875H190.125V109.625H188.25V111.5H186.375V113.375H182.625V115.25H190.125V117.125H177ZM195.75 117.125V111.5H197.625V109.625H199.5V107.75H201.375V105.875H195.75V107.75H192V104H205.125V107.75H203.25V109.625H201.375V111.5H199.5V117.125H195.75ZM210.75 117.125V113.375H214.5V117.125H210.75ZM225.75 117.125V115.25H223.875V113.375H222V107.75H223.875V105.875H225.75V104H231.375V105.875H233.25V107.75H235.125V113.375H233.25V115.25H231.375V117.125H225.75ZM227.625 115.25H231.375V107.75H229.5V105.875H225.75V113.375H227.625V115.25ZM237 117.125V113.375H238.875V111.5H240.75V109.625H244.5V107.75H246.375V105.875H240.75V107.75H237V105.875H238.875V104H248.25V105.875H250.125V109.625H248.25V111.5H246.375V113.375H242.625V115.25H250.125V117.125H237ZM255.75 117.125V113.375H259.5V117.125H255.75ZM267 117.125V113.375H268.875V111.5H270.75V109.625H274.5V107.75H276.375V105.875H270.75V107.75H267V105.875H268.875V104H278.25V105.875H280.125V109.625H278.25V111.5H276.375V113.375H272.625V115.25H280.125V117.125H267ZM285.75 117.125V115.25H283.875V113.375H282V107.75H283.875V105.875H285.75V104H291.375V105.875H293.25V107.75H295.125V113.375H293.25V115.25H291.375V117.125H285.75ZM287.625 115.25H291.375V107.75H289.5V105.875H285.75V113.375H287.625V115.25ZM297 117.125V113.375H298.875V111.5H300.75V109.625H304.5V107.75H306.375V105.875H300.75V107.75H297V105.875H298.875V104H308.25V105.875H310.125V109.625H308.25V111.5H306.375V113.375H302.625V115.25H310.125V117.125H297ZM313.875 117.125V115.25H312V107.75H313.875V105.875H315.75V104H323.25V105.875H317.625V107.75H315.75V109.625H323.25V111.5H325.125V115.25H323.25V117.125H313.875ZM315.75 115.25H321.375V111.5H315.75V115.25Z" fill="#FFFDF8"/>
</g>
<rect x="128.5" y="145" width="246.149" height="2.44895" fill="#1C6A80"/>
<rect x="128.5" y="206.22" width="246.149" height="2.44895" fill="#1C6A80"/>
<rect x="374.652" y="147.452" width="4.60091" height="2.44895" fill="#1C6A80"/>
<rect width="4.60091" height="2.44895" transform="matrix(-1 0 0 1 128.5 147.452)" fill="#1C6A80"/>
<rect x="379.254" y="149.9" width="2.30045" height="2.44895" fill="#1C6A80"/>
<rect width="2.30045" height="2.44895" transform="matrix(-1 0 0 1 123.906 149.9)" fill="#1C6A80"/>
<rect x="381.551" y="152.343" width="2.30045" height="2.44895" fill="#1C6A80"/>
<rect width="2.30045" height="2.44895" transform="matrix(-1 0 0 1 121.613 152.343)" fill="#1C6A80"/>
<rect x="383.852" y="154.795" width="2.30045" height="44.081" fill="#1C6A80"/>
<rect width="2.30045" height="44.081" transform="matrix(-1 0 0 1 119.301 154.795)" fill="#1C6A80"/>
<rect x="381.551" y="198.877" width="2.30045" height="2.44895" fill="#1C6A80"/>
<rect width="2.30045" height="2.44895" transform="matrix(-1 0 0 1 121.613 198.877)" fill="#1C6A80"/>
<rect x="379.254" y="201.328" width="2.30045" height="2.44895" fill="#1C6A80"/>
<rect width="2.30045" height="2.44895" transform="matrix(-1 0 0 1 123.906 201.328)" fill="#1C6A80"/>
<rect x="374.652" y="203.772" width="4.60091" height="2.44895" fill="#1C6A80"/>
<rect width="4.60091" height="2.44895" transform="matrix(-1 0 0 1 128.5 203.772)" fill="#1C6A80"/>
<rect x="128.5" y="147.452" width="246.149" height="58.7747" fill="#9CC1C4"/>
<rect x="374.652" y="149.9" width="4.60091" height="53.8768" fill="#9CC1C4"/>
<rect x="379.254" y="152.343" width="2.30045" height="48.9789" fill="#9CC1C4"/>
<rect x="381.551" y="154.795" width="2.30045" height="44.081" fill="#9CC1C4"/>
<rect x="119.301" y="154.795" width="2.30045" height="44.081" fill="#9CC1C4"/>
<rect x="121.613" y="152.343" width="2.30045" height="48.9789" fill="#9CC1C4"/>
<rect x="123.906" y="149.9" width="4.60091" height="53.8768" fill="#9CC1C4"/>
<rect x="134.101" y="150.431" width="234.519" height="2.01678" fill="#ADDDDF"/>
<rect x="134.101" y="200.85" width="234.519" height="2.01678" fill="#ADDDDF"/>
<rect x="368.616" y="152.451" width="4.38354" height="2.01678" fill="#ADDDDF"/>
<rect width="4.38354" height="2.01678" transform="matrix(-1 0 0 1 134.101 152.451)" fill="#ADDDDF"/>
<rect x="373.003" y="154.462" width="2.19177" height="2.01678" fill="#ADDDDF"/>
<rect width="2.19177" height="2.01678" transform="matrix(-1 0 0 1 129.714 154.462)" fill="#ADDDDF"/>
<rect x="375.194" y="156.481" width="2.19177" height="2.01678" fill="#ADDDDF"/>
<rect width="2.19177" height="2.01678" transform="matrix(-1 0 0 1 127.53 156.481)" fill="#ADDDDF"/>
<rect x="377.386" y="158.5" width="2.19177" height="36.302" fill="#ADDDDF"/>
<rect width="2.19177" height="36.302" transform="matrix(-1 0 0 1 125.335 158.5)" fill="#ADDDDF"/>
<rect x="375.194" y="194.797" width="2.19177" height="2.01678" fill="#ADDDDF"/>
<rect width="2.19177" height="2.01678" transform="matrix(-1 0 0 1 127.53 194.797)" fill="#ADDDDF"/>
<rect x="373.003" y="196.816" width="2.19177" height="2.01678" fill="#ADDDDF"/>
<rect width="2.19177" height="2.01678" transform="matrix(-1 0 0 1 129.714 196.816)" fill="#ADDDDF"/>
<rect x="368.616" y="198.836" width="4.38354" height="2.01678" fill="#ADDDDF"/>
<rect width="4.38354" height="2.01678" transform="matrix(-1 0 0 1 134.101 198.836)" fill="#ADDDDF"/>
<rect x="134.101" y="152.451" width="234.519" height="48.4027" fill="#5B8F9C"/>
<rect x="368.616" y="154.462" width="4.38354" height="44.3691" fill="#5B8F9C"/>
<rect x="373.003" y="156.481" width="2.19177" height="40.3356" fill="#5B8F9C"/>
<rect x="375.194" y="158.5" width="2.19177" height="36.302" fill="#5B8F9C"/>
<rect x="125.335" y="158.5" width="2.19177" height="36.302" fill="#5B8F9C"/>
<rect x="127.53" y="156.481" width="2.19177" height="40.3356" fill="#5B8F9C"/>
<rect x="129.714" y="154.462" width="4.38354" height="44.3691" fill="#5B8F9C"/>
<g filter="url(#filter3_d_298_3011)">
<path d="M151.75 182.25V171.75H148.25V170H158.75V171.75H155.25V182.25H151.75ZM162.25 182.25V180.5H160.5V178.75H162.25V177H169.25V175.25H162.25V173.5H171V175.25H172.75V182.25H162.25ZM164 180.5H169.25V178.75H164V180.5ZM174.5 184V173.5H185V175.25H186.75V178.75H185V180.5H178V184H174.5ZM178 178.75H183.25V175.25H178V178.75ZM207.75 182.25V171.75H204.25V170H214.75V171.75H211.25V182.25H207.75ZM218.25 182.25V180.5H216.5V175.25H218.25V173.5H227V175.25H228.75V180.5H227V182.25H218.25ZM220 180.5H225.25V175.25H220V180.5ZM244.5 182.25V170H255V171.75H256.75V177H255V178.75H248V182.25H244.5ZM248 177H253.25V171.75H248V177ZM263.75 175.25H265.5V177H263.75V182.25H260.25V173.5H263.75V175.25ZM270.75 173.5V175.25H265.5V173.5H270.75ZM274.25 182.25V180.5H272.5V175.25H274.25V173.5H283V175.25H284.75V178.75H276V180.5H283V182.25H274.25ZM276 177H281.25V175.25H276V177ZM288.25 177V175.25H298.75V177H288.25ZM300.5 182.25V180.5H309.25V178.75H302.25V177H300.5V175.25H302.25V173.5H311V175.25H304V177H311V178.75H312.75V180.5H311V182.25H300.5ZM316.25 182.25V180.5H314.5V178.75H316.25V177H323.25V175.25H316.25V173.5H325V175.25H326.75V182.25H316.25ZM318 180.5H323.25V178.75H318V180.5ZM333.75 182.25V180.5H332V178.75H330.25V173.5H333.75V178.75H337.25V173.5H340.75V178.75H339V180.5H337.25V182.25H333.75ZM344.25 182.25V180.5H342.5V175.25H344.25V173.5H353V175.25H354.75V178.75H346V180.5H353V182.25H344.25ZM346 177H351.25V175.25H346V177Z" fill="white"/>
</g>
<defs>
<filter id="filter0_d_298_3011" x="128" y="40" width="246" height="24" filterUnits="userSpaceOnUse" color-interpolation-filters="sRGB">
<feFlood flood-opacity="0" result="BackgroundImageFix"/>
<feColorMatrix in="SourceAlpha" type="matrix" values="0 0 0 0 0 0 0 0 0 0 0 0 0 0 0 0 0 0 127 0" result="hardAlpha"/>
<feOffset dy="2"/>
<feGaussianBlur stdDeviation="2"/>
<feComposite in2="hardAlpha" operator="out"/>
<feColorMatrix type="matrix" values="0 0 0 0 0 0 0 0 0 0 0 0 0 0 0 0 0 0 0.5 0"/>
<feBlend mode="normal" in2="BackgroundImageFix" result="effect1_dropShadow_298_3011"/>
<feBlend mode="normal" in="SourceGraphic" in2="effect1_dropShadow_298_3011" result="shape"/>
</filter>
<filter id="filter1_d_298_3011" x="128" y="65" width="246" height="22" filterUnits="userSpaceOnUse" color-interpolation-filters="sRGB">
<feFlood flood-opacity="0" result="BackgroundImageFix"/>
<feColorMatrix in="SourceAlpha" type="matrix" values="0 0 0 0 0 0 0 0 0 0 0 0 0 0 0 0 0 0 127 0" result="hardAlpha"/>
<feOffset dy="2"/>
<feGaussianBlur stdDeviation="2"/>
<feComposite in2="hardAlpha" operator="out"/>
<feColorMatrix type="matrix" values="0 0 0 0 0 0 0 0 0 0 0 0 0 0 0 0 0 0 0.5 0"/>
<feBlend mode="normal" in2="BackgroundImageFix" result="effect1_dropShadow_298_3011"/>
<feBlend mode="normal" in="SourceGraphic" in2="effect1_dropShadow_298_3011" result="shape"/>
</filter>
<filter id="filter2_d_298_3011" x="173" y="102" width="156.125" height="21.125" filterUnits="userSpaceOnUse" color-interpolation-filters="sRGB">
<feFlood flood-opacity="0" result="BackgroundImageFix"/>
<feColorMatrix in="SourceAlpha" type="matrix" values="0 0 0 0 0 0 0 0 0 0 0 0 0 0 0 0 0 0 127 0" result="hardAlpha"/>
<feOffset dy="2"/>
<feGaussianBlur stdDeviation="2"/>
<feComposite in2="hardAlpha" operator="out"/>
<feColorMatrix type="matrix" values="0 0 0 0 0 0 0 0 0 0 0 0 0 0 0 0 0 0 0.5 0"/>
<feBlend mode="normal" in2="BackgroundImageFix" result="effect1_dropShadow_298_3011"/>
<feBlend mode="normal" in="SourceGraphic" in2="effect1_dropShadow_298_3011" result="shape"/>
</filter>
<filter id="filter3_d_298_3011" x="144.25" y="168" width="214.5" height="22" filterUnits="userSpaceOnUse" color-interpolation-filters="sRGB">
<feFlood flood-opacity="0" result="BackgroundImageFix"/>
<feColorMatrix in="SourceAlpha" type="matrix" values="0 0 0 0 0 0 0 0 0 0 0 0 0 0 0 0 0 0 127 0" result="hardAlpha"/>
<feOffset dy="2"/>
<feGaussianBlur stdDeviation="2"/>
<feComposite in2="hardAlpha" operator="out"/>
<feColorMatrix type="matrix" values="0 0 0 0 0 0 0 0 0 0 0 0 0 0 0 0 0 0 0.5 0"/>
<feBlend mode="normal" in2="BackgroundImageFix" result="effect1_dropShadow_298_3011"/>
<feBlend mode="normal" in="SourceGraphic" in2="effect1_dropShadow_298_3011" result="shape"/>
</filter>
</defs>
</svg>
